# xmcd
#
# Track frame offsets:
#	187
#	11575
#	24092
#	33182
#	45857
#	55907
#	65730
#	75400
#	84120
#	100987
#	114927
#	126547
#	135335
#	149277
#	170227
#	183340
#
# Disc length: 2642 seconds
# Revision: 2
# Processed by: cddbd v1.5.2PL0 Copyright (c) Steve Scherf et al.
# Submitted via: dBpowerAMP V12.0
#
DISCID=c40a5010
DTITLE=Bill Monroe - Bill Monroe: Country Music Hall of Fame Series
DYEAR=1991
DGENRE=Bluegrass
TTITLE0=New Mule Skinner Blues
TTITLE1=Uncle Penn
TTITLE2=Walking in Jerusalem
TTITLE3=On and On
TTITLE4=White House Blues
TTITLE5=Happy On My Way
TTITLE6=Blue Moon of Kentucky
TTITLE7=Scotland
TTITLE8=Midnight On the Stormy Deep
TTITLE9=Kentucky Mandolin
TTITLE10=Walk Softly On This Heart of Mine
TTITLE11=The Lee Weddin' Tune
TTITLE12=Kentucky Waltz
TTITLE13=My Last Days On Earth
TTITLE14=My Sweet Blue Eyed Darlin
TTITLE15=Southern Flavor
EXTD=
EXTT0=
EXTT1=
EXTT2=
EXTT3=
EXTT4=
EXTT5=
EXTT6=
EXTT7=
EXTT8=
EXTT9=
EXTT10=
EXTT11=
EXTT12=
EXTT13=
EXTT14=
EXTT15=
PLAYORDER=
